<svg id="Layer_1" data-name="Layer 1" xmlns="http://www.w3.org/2000/svg" viewBox="0 0 1024 1024"><defs><style>.cls-1{fill:#fff;}.cls-2{fill:#fff4dc;}.cls-3{fill:#4f8c47;}.cls-4{fill:#9dc034;}.cls-5{fill:#286754;}.cls-6{fill:#6da13e;}</style></defs><rect class="cls-1" width="1024" height="1024"/><rect y="982.23" width="1024" height="41.76"/><path class="cls-2" d="M318.63,990.7H323a12.79,12.79,0,0,1,8.37,2.68,9.2,9.2,0,0,1,3.32,7.63q0,5.12-3.29,7.82a12.89,12.89,0,0,1-8.49,2.71h-4.23Zm2.6,18.46h.92a17.32,17.32,0,0,0,3.81-.4,8.75,8.75,0,0,0,3.14-1.35,7.1,7.1,0,0,0,2.14-2.49,8.19,8.19,0,0,0,.8-3.8,8.5,8.5,0,0,0-.79-3.83,6,6,0,0,0-2.2-2.47,10.05,10.05,0,0,0-3.11-1.33,15.78,15.78,0,0,0-3.79-.41h-.92Z" transform="translate(-0.47 -0.12)"/><path class="cls-2" d="M338.45,1005.49a4.86,4.86,0,0,0,1.11,3,3.47,3.47,0,0,0,2.79,1.27,3.74,3.74,0,0,0,2.23-.62,6.41,6.41,0,0,0,1.64-1.89l2.1,1.18a6.75,6.75,0,0,1-6,3.54,5.94,5.94,0,0,1-4.64-1.93,7.15,7.15,0,0,1-1.71-4.87,7.6,7.6,0,0,1,1.63-5,5.7,5.7,0,0,1,4.67-1.93,5.36,5.36,0,0,1,4.5,1.93,7.69,7.69,0,0,1,1.55,5v.39Zm7.38-1.89a3.92,3.92,0,0,0-1.15-2.36,3.42,3.42,0,0,0-2.41-.87,3.67,3.67,0,0,0-1.34.24,3.32,3.32,0,0,0-1.11.68,3.85,3.85,0,0,0-.8,1,4.12,4.12,0,0,0-.43,1.28Z" transform="translate(-0.47 -0.12)"/><path class="cls-2" d="M355.64,1001.56a1.77,1.77,0,0,0-1.65-1.13,1.35,1.35,0,0,0-.94.37,1.17,1.17,0,0,0-.42.9,1.2,1.2,0,0,0,.32.84,3.3,3.3,0,0,0,.87.66c.24.1.42.19.55.26l.64.29a2.3,2.3,0,0,0,.39.16,1.1,1.1,0,0,1,.24.11,7.47,7.47,0,0,1,2.19,1.47,3.06,3.06,0,0,1,.8,2.21,4,4,0,0,1-1.33,3.06,4.36,4.36,0,0,1-3.12,1.22,5.27,5.27,0,0,1-1.44-.2,5.39,5.39,0,0,1-1.29-.59,4.51,4.51,0,0,1-1-.91,4,4,0,0,1-.71-1.2l2.13-1a2.68,2.68,0,0,0,2.35,1.66,2.06,2.06,0,0,0,1.81-1.12,1.56,1.56,0,0,0,.1-1,1.9,1.9,0,0,0-.86-1.06l-2.44-1.3a10,10,0,0,1-1.1-.67,3.5,3.5,0,0,1-.77-.7,2.71,2.71,0,0,1-.46-.83,3.39,3.39,0,0,1-.15-1.06,3.56,3.56,0,0,1,1.11-2.66,3.89,3.89,0,0,1,6.24,1.16Z" transform="translate(-0.47 -0.12)"/><path class="cls-2" d="M364.57,992.69a1.69,1.69,0,0,1-1.71,1.68,1.66,1.66,0,0,1-1.22-.49,1.63,1.63,0,0,1-.5-1.19,1.71,1.71,0,0,1,.5-1.23,1.64,1.64,0,0,1,1.22-.51,1.62,1.62,0,0,1,1.21.51A1.71,1.71,0,0,1,364.57,992.69Zm-.47,18.85h-2.49V998.6h2.49Z" transform="translate(-0.47 -0.12)"/><path class="cls-2" d="M380.19,1011.29a9.9,9.9,0,0,1-1.39,5.67c-.92,1.32-2.56,2-4.92,2a6.41,6.41,0,0,1-4.47-1.58,5.69,5.69,0,0,1-1.77-4.28h2.49a3.41,3.41,0,0,0,1.06,2.69,4,4,0,0,0,2.81,1,3.19,3.19,0,0,0,2.91-1.25,6.52,6.52,0,0,0,.79-3.51v-2.46h-.06a5.44,5.44,0,0,1-1.92,1.81,4.85,4.85,0,0,1-2.47.65,5.52,5.52,0,0,1-4.53-2,7.53,7.53,0,0,1-1.66-5,7.06,7.06,0,0,1,1.69-4.76,5.44,5.44,0,0,1,4.39-2,5.08,5.08,0,0,1,4.5,2.6h.06V998.6h2.49Zm-6.55-1.52a3.73,3.73,0,0,0,3.06-1.35,5.09,5.09,0,0,0,1.14-3.35,4.91,4.91,0,0,0-1.14-3.28,4,4,0,0,0-6.05,0,5,5,0,0,0-1.11,3.26,5.06,5.06,0,0,0,1.11,3.32A3.68,3.68,0,0,0,373.64,1009.77Z" transform="translate(-0.47 -0.12)"/><path class="cls-2" d="M385.91,1000.35h0a3.83,3.83,0,0,1,1.61-1.58,4.81,4.81,0,0,1,2.29-.55,5.53,5.53,0,0,1,2.16.38,3.5,3.5,0,0,1,1.42,1.11,4.45,4.45,0,0,1,.77,1.75,10.61,10.61,0,0,1,.24,2.37v7.71H392v-7.4a5.36,5.36,0,0,0-.55-2.79,2.46,2.46,0,0,0-2.29-.92,4.13,4.13,0,0,0-1.08.12,2.81,2.81,0,0,0-.78.36,2.57,2.57,0,0,0-.55.54,4.88,4.88,0,0,0-.41.66,3,3,0,0,0-.16.5c0,.21-.09.41-.12.62s-.07.43-.09.64,0,.38,0,.51v7.16h-2.49V998.6h2.49Z" transform="translate(-0.47 -0.12)"/><path class="cls-2" d="M405.67,987.55h2.49v13.21h.06a5.21,5.21,0,0,1,4.5-2.54,5.44,5.44,0,0,1,4.39,2,7.06,7.06,0,0,1,1.69,4.76,7.53,7.53,0,0,1-1.66,5,5.52,5.52,0,0,1-4.53,2,4.89,4.89,0,0,1-2.48-.65,5.5,5.5,0,0,1-1.91-1.81h-.06v2h-2.49Zm6.44,22.22a3.75,3.75,0,0,0,3.07-1.35,5.09,5.09,0,0,0,1.13-3.35,4.9,4.9,0,0,0-1.13-3.28,4,4,0,0,0-6.06,0,5,5,0,0,0-1.1,3.26,5.11,5.11,0,0,0,1.1,3.32A3.7,3.7,0,0,0,412.11,1009.77Z" transform="translate(-0.47 -0.12)"/><path class="cls-2" d="M419.16,998.6h2.9l4.37,8.21,4.06-8.21h2.79L422.81,1019H420l5.08-9.62Z" transform="translate(-0.47 -0.12)"/><path class="cls-2" d="M445.83,1006.32l-2.38,5.22h-2.79l9.95-21.73,9.95,21.73h-2.79l-2.38-5.22Zm4.78-10.81-3.7,8.43h7.41Z" transform="translate(-0.47 -0.12)"/><path class="cls-2" d="M464.62,1011.54h-2.48v-24h2.48Z" transform="translate(-0.47 -0.12)"/><path class="cls-2" d="M470.76,1011.54h-2.49v-24h2.49Z" transform="translate(-0.47 -0.12)"/><path class="cls-2" d="M480.21,1001.64v2.08h-6v-2.08Z" transform="translate(-0.47 -0.12)"/><path class="cls-2" d="M489.89,990.06a4.83,4.83,0,0,0-1.66-.52,1.31,1.31,0,0,0-1.16.51,3.12,3.12,0,0,0-.5,1.26,8,8,0,0,0-.1.87c0,.21,0,.5,0,.87v5.55h3.43v2.32h-3.43v10.62H484v-10.62h-1.13V998.6H484v-6.3q0-5.09,4.17-5.08a4.73,4.73,0,0,1,1.75.33Z" transform="translate(-0.47 -0.12)"/><path class="cls-2" d="M493.73,1000.7h.08a4.19,4.19,0,0,1,1.38-1.82,3.59,3.59,0,0,1,2.16-.66,3.85,3.85,0,0,1,2,.63l-1.13,2.27a2.25,2.25,0,0,0-1.52-.53,2.48,2.48,0,0,0-2.54,1.55,7,7,0,0,0-.38,1.42,13,13,0,0,0-.09,1.62v6.36h-2.49V998.6h2.49Z" transform="translate(-0.47 -0.12)"/><path class="cls-2" d="M502.27,1005.49a4.91,4.91,0,0,0,1.1,3,3.49,3.49,0,0,0,2.8,1.27,3.69,3.69,0,0,0,2.22-.62,6.14,6.14,0,0,0,1.64-1.89l2.11,1.18a6.78,6.78,0,0,1-6,3.54,6,6,0,0,1-4.65-1.93,7.15,7.15,0,0,1-1.71-4.87,7.6,7.6,0,0,1,1.63-5,5.72,5.72,0,0,1,4.67-1.93,5.4,5.4,0,0,1,4.51,1.93,7.69,7.69,0,0,1,1.55,5v.39Zm7.38-1.89a3.92,3.92,0,0,0-1.15-2.36,3.43,3.43,0,0,0-2.42-.87,3.71,3.71,0,0,0-1.34.24,3.38,3.38,0,0,0-1.1.68,3.66,3.66,0,0,0-.8,1,3.87,3.87,0,0,0-.43,1.28Z" transform="translate(-0.47 -0.12)"/><path class="cls-2" d="M515.75,1005.49a4.86,4.86,0,0,0,1.11,3,3.48,3.48,0,0,0,2.79,1.27,3.72,3.72,0,0,0,2.23-.62,6.41,6.41,0,0,0,1.64-1.89l2.1,1.18a6.75,6.75,0,0,1-6,3.54,5.94,5.94,0,0,1-4.64-1.93,7.15,7.15,0,0,1-1.71-4.87,7.6,7.6,0,0,1,1.63-5,5.71,5.71,0,0,1,4.67-1.93,5.36,5.36,0,0,1,4.5,1.93,7.69,7.69,0,0,1,1.55,5v.39Zm7.39-1.89a4,4,0,0,0-1.15-2.36,3.45,3.45,0,0,0-2.42-.87,3.76,3.76,0,0,0-1.35.24,3.38,3.38,0,0,0-1.1.68,3.85,3.85,0,0,0-.8,1,4.12,4.12,0,0,0-.43,1.28Z" transform="translate(-0.47 -0.12)"/><path class="cls-2" d="M533.66,1001.64v2.08h-6v-2.08Z" transform="translate(-0.47 -0.12)"/><path class="cls-2" d="M546.57,1009.52h-.06a5.5,5.5,0,0,1-1.91,1.81,4.89,4.89,0,0,1-2.48.65,5.54,5.54,0,0,1-4.53-2,7.53,7.53,0,0,1-1.66-5,7.06,7.06,0,0,1,1.69-4.76,5.46,5.46,0,0,1,4.39-2,5.21,5.21,0,0,1,4.5,2.54h.06V987.55h2.49v24h-2.49Zm-4.06.25a3.75,3.75,0,0,0,3.07-1.35,5.14,5.14,0,0,0,1.13-3.35,5,5,0,0,0-1.13-3.28,3.73,3.73,0,0,0-3.07-1.36,3.68,3.68,0,0,0-3,1.38,5,5,0,0,0-1.1,3.26,5.11,5.11,0,0,0,1.1,3.32A3.68,3.68,0,0,0,542.51,1009.77Z" transform="translate(-0.47 -0.12)"/><path class="cls-2" d="M553.12,1000.21a6.73,6.73,0,0,1,4.92-2,6.88,6.88,0,1,1,0,13.76,6.92,6.92,0,0,1-4.92-11.77Zm.5,4.89a4.49,4.49,0,0,0,1.3,3.18,4.15,4.15,0,0,0,3.12,1.33,4.21,4.21,0,0,0,3.12-1.33,4.54,4.54,0,0,0,0-6.36,4.21,4.21,0,0,0-3.12-1.33,4.15,4.15,0,0,0-3.12,1.33A4.45,4.45,0,0,0,553.62,1005.1Z" transform="translate(-0.47 -0.12)"/><path class="cls-2" d="M571.64,1006.84l3.81-9,3.79,9L583,998.6h2.82L579.24,1012l-3.79-8.65-3.81,8.65-6.58-13.38h2.82Z" transform="translate(-0.47 -0.12)"/><path class="cls-2" d="M589.55,1000.35h.06a3.75,3.75,0,0,1,1.6-1.58,4.84,4.84,0,0,1,2.29-.55,5.53,5.53,0,0,1,2.16.38,3.43,3.43,0,0,1,1.42,1.11,4.45,4.45,0,0,1,.77,1.75,10.61,10.61,0,0,1,.24,2.37v7.71H595.6v-7.4a5.36,5.36,0,0,0-.55-2.79,2.44,2.44,0,0,0-2.29-.92,4.13,4.13,0,0,0-1.08.12,2.81,2.81,0,0,0-.78.36,2.57,2.57,0,0,0-.55.54,6.14,6.14,0,0,0-.41.66,3,3,0,0,0-.16.5l-.12.62c0,.22-.07.43-.08.64s0,.38,0,.51v7.16h-2.49V998.6h2.49Z" transform="translate(-0.47 -0.12)"/><path class="cls-2" d="M604.11,1011.54h-2.48v-24h2.48Z" transform="translate(-0.47 -0.12)"/><path class="cls-2" d="M608.48,1000.21a6.73,6.73,0,0,1,4.92-2,6.88,6.88,0,1,1,0,13.76,6.92,6.92,0,0,1-4.92-11.77Zm.5,4.89a4.49,4.49,0,0,0,1.3,3.18,4.32,4.32,0,0,0,6.24,0,4.51,4.51,0,0,0,0-6.36,4.32,4.32,0,0,0-6.24,0A4.45,4.45,0,0,0,609,1005.1Z" transform="translate(-0.47 -0.12)"/><path class="cls-2" d="M634.71,1011.54h-2.49v-2h-.05a5.07,5.07,0,0,1-4.4,2.46,5.6,5.6,0,0,1-4.53-2,7.53,7.53,0,0,1-1.66-5,7.06,7.06,0,0,1,1.69-4.76,5.47,5.47,0,0,1,4.42-2,5.19,5.19,0,0,1,4.48,2.54h.05V998.6h2.49Zm-6.55-1.77a3.75,3.75,0,0,0,3.07-1.35,5.14,5.14,0,0,0,1.13-3.35,5,5,0,0,0-1.13-3.28,3.73,3.73,0,0,0-3.07-1.36,3.66,3.66,0,0,0-3,1.38,5,5,0,0,0-1.11,3.26,5.06,5.06,0,0,0,1.11,3.32A3.66,3.66,0,0,0,628.16,1009.77Z" transform="translate(-0.47 -0.12)"/><path class="cls-2" d="M647.59,1009.52h-.05a5.61,5.61,0,0,1-1.92,1.81,4.89,4.89,0,0,1-2.48.65,5.54,5.54,0,0,1-4.53-2,7.59,7.59,0,0,1-1.66-5,7.06,7.06,0,0,1,1.69-4.76,5.46,5.46,0,0,1,4.39-2,5.24,5.24,0,0,1,4.51,2.54h.05V987.55h2.49v24h-2.49Zm-4.06.25a3.72,3.72,0,0,0,3.06-1.35,5.09,5.09,0,0,0,1.14-3.35,4.91,4.91,0,0,0-1.14-3.28,3.7,3.7,0,0,0-3.06-1.36,3.65,3.65,0,0,0-3,1.38,5,5,0,0,0-1.11,3.26,5.06,5.06,0,0,0,1.11,3.32A3.65,3.65,0,0,0,643.53,1009.77Z" transform="translate(-0.47 -0.12)"/><path class="cls-2" d="M657.21,1010.38a1.55,1.55,0,0,1-.47,1.13,1.52,1.52,0,0,1-1.14.47,1.6,1.6,0,0,1-1.6-1.6,1.62,1.62,0,0,1,1.6-1.6,1.53,1.53,0,0,1,1.14.48A1.56,1.56,0,0,1,657.21,1010.38Z" transform="translate(-0.47 -0.12)"/><path class="cls-2" d="M670.81,1002.28a4.8,4.8,0,0,0-3.71-1.74,4,4,0,0,0-3.06,1.35,4.65,4.65,0,0,0-1.25,3.18,4.49,4.49,0,0,0,1.25,3.29,4.37,4.37,0,0,0,3.23,1.3,4.66,4.66,0,0,0,3.54-1.71v3.18a7.47,7.47,0,0,1-3.57.85,6.86,6.86,0,0,1-4.92-2,6.4,6.4,0,0,1-2-4.84,6.69,6.69,0,0,1,2-5,6.92,6.92,0,0,1,5.06-2,6.5,6.5,0,0,1,3.43.86Z" transform="translate(-0.47 -0.12)"/><path class="cls-2" d="M674.32,1000.21a6.71,6.71,0,0,1,4.92-2,6.88,6.88,0,1,1,0,13.76,6.71,6.71,0,0,1-4.92-2,7,7,0,0,1,0-9.78Zm.49,4.89a4.53,4.53,0,0,0,1.3,3.18,4.19,4.19,0,0,0,3.13,1.33,4.24,4.24,0,0,0,3.12-1.33,4.54,4.54,0,0,0,0-6.36,4.24,4.24,0,0,0-3.12-1.33,4.19,4.19,0,0,0-3.13,1.33A4.5,4.5,0,0,0,674.81,1005.1Z" transform="translate(-0.47 -0.12)"/><path class="cls-2" d="M690.82,1000.23h0a4.66,4.66,0,0,1,1.48-1.45,3.76,3.76,0,0,1,1.95-.56,4.13,4.13,0,0,1,3.73,2.29,4.56,4.56,0,0,1,1.68-1.67,4.48,4.48,0,0,1,2.3-.62q4.29,0,4.29,5.58v7.74h-2.49v-7.32c0-.33,0-.66,0-1a7.36,7.36,0,0,0-.15-.94,3.09,3.09,0,0,0-.34-.84,2.43,2.43,0,0,0-.6-.69,2.26,2.26,0,0,0-1.27-.33,2.55,2.55,0,0,0-1.33.33,2.41,2.41,0,0,0-.82.76,3.83,3.83,0,0,0-.45,1.15,8.24,8.24,0,0,0-.21,1.24c0,.37,0,.8,0,1.27v6.36h-2.49v-6.85c0-.45,0-.81,0-1.11a8.92,8.92,0,0,0-.16-1.11,2.94,2.94,0,0,0-.36-1.05,2.26,2.26,0,0,0-.69-.69,2.06,2.06,0,0,0-1.14-.3,2.31,2.31,0,0,0-2.45,1.66,7.2,7.2,0,0,0-.33,1.46,12.87,12.87,0,0,0-.09,1.63v6.36h-2.49V998.6h2.49Z" transform="translate(-0.47 -0.12)"/><rect class="cls-2" x="260.19" y="1002.11" width="35.21" height="1.72"/><rect class="cls-2" x="728.61" y="1002.11" width="35.2" height="1.72"/><path class="cls-3" d="M695.8,740.58l-1.45.31-1.13.21-2.12.33c-1.38.21-2.72.37-4.05.5-2.67.27-5.29.44-7.9.51a120.89,120.89,0,0,1-15.59-.56,115,115,0,0,1-30.27-7.28c-19.56-7.52-36.42-21.1-48.63-37a141.36,141.36,0,0,1-15.52-25.22,186.18,186.18,0,0,1-10.58-26.76c-2.85-9.25-4.93-17.68-7.16-26.43s-4.29-17.39-6.35-26.06c-4.13-17.33-8-34.62-12.54-51.39s-9.83-33-17.48-47.86a138.18,138.18,0,0,0-30.3-39.47c-12.45-11.41-26.84-21-41.93-29.67l-.05,0A7.24,7.24,0,0,1,449.61,412c16.16,8.18,32,17.58,46.4,29.47a157,157,0,0,1,36.44,42.83c9.51,16.33,16.07,33.77,21.72,51s10.38,34.43,15.37,51.41c2.47,8.5,5,17,7.56,25.36s5.24,17,8,24.62a154.82,154.82,0,0,0,10.07,22.27,111.42,111.42,0,0,0,13.28,19.46c10,11.71,22.38,20.51,36.3,25.1a81.77,81.77,0,0,0,21.59,4.06,86.14,86.14,0,0,0,11-.15c1.82-.14,3.63-.35,5.37-.62.87-.13,1.73-.28,2.53-.44l1.16-.25.51-.12c.09,0,.38-.09.17-.05a17.88,17.88,0,1,1,8.7,34.68Z" transform="translate(-0.47 -0.12)"/><path class="cls-3" d="M563.78,604.23S690,578.64,725.29,467c8.35-26.39,11.6-57.59,6.9-94.42C732.19,372.6,522.21,414.68,563.78,604.23Z" transform="translate(-0.47 -0.12)"/><path class="cls-4" d="M563.79,604.22,685,437.54l47.23-65s-49.79,10-96.09,42.11C587.33,448.55,542.47,507,563.79,604.22Z" transform="translate(-0.47 -0.12)"/><path class="cls-5" d="M685,437.53,618.86,547.15S677.37,532.87,725.29,467C690,578.64,563.78,604.23,563.78,604.23l.6-.83Z" transform="translate(-0.47 -0.12)"/><path class="cls-6" d="M563.79,604.22,685,437.54l-.5.61-83.88,97.53s-18.07-45.77,35.52-121C587.33,448.55,542.47,507,563.79,604.22Z" transform="translate(-0.47 -0.12)"/><path class="cls-3" d="M604.19,690s-105.35,74.1-210.68,23c-24.91-12.07-49.8-31.16-73.32-59.89C320.19,653.11,495.08,529.51,604.19,690Z" transform="translate(-0.47 -0.12)"/><path class="cls-4" d="M604.17,690,399.82,663.45,320.18,653.1s41.46-29.31,96.63-40.84C474.92,600.09,548.18,607.66,604.17,690Z" transform="translate(-0.47 -0.12)"/><path class="cls-5" d="M399.8,663.45l125.07,27.31S474.28,723.44,393.51,713c105.33,51.09,210.68-23,210.68-23l-1-.14Z" transform="translate(-0.47 -0.12)"/><path class="cls-6" d="M604.17,690,399.82,663.45l.78,0,128.5,6.1S508.28,625,416.81,612.26C474.92,600.09,548.18,607.66,604.17,690Z" transform="translate(-0.47 -0.12)"/><path class="cls-3" d="M542.31,544.86S458,601,376.19,558.73c-19.35-10-38.54-25.5-56.46-48.56C319.73,510.17,459.72,416.48,542.31,544.86Z" transform="translate(-0.47 -0.12)"/><path class="cls-4" d="M542.29,544.85l-160.15-25-62.42-9.73s33.19-22.22,76.8-30.18C442.46,471.58,499.91,479,542.29,544.85Z" transform="translate(-0.47 -0.12)"/><path class="cls-5" d="M382.13,519.89l97.79,24s-40.43,24.68-103.73,14.85C458,601,542.31,544.86,542.31,544.86l-.8-.13Z" transform="translate(-0.47 -0.12)"/><path class="cls-6" d="M542.29,544.85l-160.15-25,.61.06,100.92,7.37S468.19,491.84,396.52,480C442.46,471.58,499.91,479,542.29,544.85Z" transform="translate(-0.47 -0.12)"/><path class="cls-3" d="M523.53,481.71s-56.17-84.31-13.89-166.12c10-19.34,25.49-38.54,48.55-56.46C558.19,259.13,651.89,399.11,523.53,481.71Z" transform="translate(-0.47 -0.12)"/><path class="cls-4" d="M523.53,481.7l25-160.16,9.72-62.42s22.22,33.19,30.19,76.8C596.79,381.86,589.39,439.31,523.53,481.7Z" transform="translate(-0.47 -0.12)"/><path class="cls-5" d="M548.47,321.53l-24,97.8s-24.69-40.43-14.86-103.74c-42.28,81.81,13.89,166.12,13.89,166.12l.12-.79Z" transform="translate(-0.47 -0.12)"/><path class="cls-6" d="M523.53,481.7l25-160.16-.06.61-7.36,100.93s35.47-15.49,47.33-87.16C596.79,381.86,589.39,439.31,523.53,481.7Z" transform="translate(-0.47 -0.12)"/><path class="cls-3" d="M469.12,429.52S374.57,465.9,304,406.76c-16.7-14-32-33.3-44.49-59.72C259.5,347,416.58,286.21,469.12,429.52Z" transform="translate(-0.47 -0.12)"/><path class="cls-4" d="M469.11,429.52,318.28,370.17,259.5,347s37.24-14.43,81.54-12.68C387.7,336.2,442.14,356,469.11,429.52Z" transform="translate(-0.47 -0.12)"/><path class="cls-5" d="M318.27,370.17l90.19,44.77S363.61,430.19,304,406.76c70.58,59.14,165.13,22.76,165.13,22.76l-.74-.3Z" transform="translate(-0.47 -0.12)"/><path class="cls-6" d="M469.11,429.52,318.28,370.17l.59.19,96.87,29.24s-7.36-38-74.7-65.24C387.7,336.2,442.14,356,469.11,429.52Z" transform="translate(-0.47 -0.12)"/></svg>